<?xml version="1.0" encoding="utf-8"?>
<!-- Generator: Adobe Illustrator 21.1.0, SVG Export Plug-In . SVG Version: 6.00 Build 0)  -->
<svg version="1.1" id="Layer_1" xmlns="http://www.w3.org/2000/svg" xmlns:xlink="http://www.w3.org/1999/xlink" x="0px" y="0px"
	 viewBox="0 0 612 231.8" style="enable-background:new 0 0 612 231.8;" xml:space="preserve">
<g>
	<g>
		<path d="M196,163.9V94.2h16.4v25.2c3.9-0.7,7.6-1,11.2-1c10.1,0,17.9,2.8,23.3,8.5c5.4,5.7,8.2,13.8,8.2,24.5
			c0,5.9-0.8,11-2.4,15.5c-1.6,4.5-3.5,7.9-5.6,10.2c-2.2,2.3-4.8,4.2-7.8,5.7c-3,1.5-5.7,2.4-7.9,2.7c-2.2,0.3-4.5,0.5-6.7,0.5
			c-9.7,0-16.9-2.2-21.6-6.5C198.4,175.1,196,169.9,196,163.9z M212.4,165.4c0,4.7,4.1,7.1,12.3,7.1c5.2,0,8.8-1.7,10.9-5.1
			c2.1-3.4,3.1-9,3.1-16.8c0-7.4-1.3-12.5-4-15.5c-2.7-2.9-6.6-4.4-11.7-4.4c-4,0-7.5,0.4-10.6,1.1V165.4z"/>
		<path d="M276.2,177.2c-5.6-5.8-8.3-14.1-8.3-25c0-10.9,2.8-19.2,8.3-25c5.6-5.8,13.5-8.7,23.9-8.7c10.4,0,18.3,2.9,23.9,8.7
			c5.6,5.8,8.3,14.1,8.3,25c0,10.9-2.8,19.2-8.3,25c-5.6,5.8-13.5,8.7-23.9,8.7C289.7,186,281.7,183,276.2,177.2z M288.1,135.8
			c-2.6,2.9-3.9,8.4-3.9,16.5s1.3,13.6,3.9,16.5c2.6,2.8,6.6,4.3,12,4.3c5.4,0,9.3-1.4,11.9-4.3c2.6-2.8,3.9-8.3,3.9-16.5
			s-1.3-13.6-3.9-16.5c-2.6-2.9-6.6-4.3-11.9-4.3C294.7,131.5,290.7,132.9,288.1,135.8z"/>
		<path d="M340.5,184.9l24.2-33.1l-23.6-32.4h20l13.6,18.7l13.7-18.7h18.2l-22.8,31l25.2,34.6h-20L373.7,164l-15.4,20.9H340.5z"/>
		<path d="M424,155.2v-35.8h16.4v37.9c0,5.2,1.1,9,3.3,11.3c2.2,2.3,5.9,3.5,10.9,3.5c5.1,0,8.8-1.2,11-3.5
			c2.2-2.3,3.3-6.1,3.3-11.3v-37.9h16.4v35.8c0,9.6-2.7,17.1-8.1,22.6c-5.4,5.4-13,8.1-22.6,8.1c-9.7,0-17.2-2.7-22.5-8.1
			C426.7,172.4,424,164.9,424,155.2z"/>
		<path d="M501.3,152c0-5.8,0.8-10.8,2.3-15.1c1.6-4.3,3.4-7.6,5.5-9.8c2.1-2.3,4.7-4.1,7.6-5.5c2.9-1.4,5.5-2.3,7.6-2.6
			c2.2-0.3,4.4-0.5,6.5-0.5c9.5,0,16.6,2.1,21.1,6.3c4.5,4.2,6.8,9.3,6.8,15.3v46.6c0,2.1-0.2,4.1-0.6,6c-0.4,1.9-1.2,4-2.5,6.3
			c-1.3,2.3-3,4.3-5.1,5.9c-2.1,1.6-5.1,3-9,4.1c-3.9,1.1-8.3,1.7-13.5,1.7c-7.2,0-13.7-0.9-19.7-2.6v-14.2
			c5.5,1.8,11.4,2.6,17.8,2.6c3.8,0,6.9-0.3,9.3-0.8c2.4-0.5,4-1.4,4.9-2.6s1.4-2.2,1.6-3c0.2-0.8,0.3-2,0.3-3.4V183
			c-3.6,0.7-7.1,1.1-10.3,1.1c-9.9,0-17.5-2.8-22.8-8.3C504,170.3,501.3,162.4,501.3,152z M517.7,152.3c0,7.3,1.2,12.3,3.7,14.9
			c2.4,2.6,6.2,3.9,11.2,3.9c3.3,0,6.6-0.3,9.8-0.9v-30.4c0-4.9-3.8-7.3-11.3-7.3c-0.1,0-0.2,0-0.2,0c-4.4,0-7.6,1.5-9.9,4.6
			C518.8,140.2,517.7,145.2,517.7,152.3z"/>
	</g>
	<path d="M128.9,110.3h-12.2V83.8c13.2-4.9,22.6-17.6,22.6-32.5c0-19.2-15.6-34.8-34.8-34.8S69.8,32,69.8,51.2
		c0,14.3,8.6,26.5,20.9,31.9v27.2H80.2c-15.3,0-27.8,12.5-27.8,27.8v48.7c0,15.3,12.5,27.8,27.8,27.8h48.7
		c15.3,0,27.8-12.5,27.8-27.8v-48.7C156.7,122.8,144.2,110.3,128.9,110.3z M130.6,164.2c0,14.4-11.7,26.1-26.1,26.1
		s-26.1-11.7-26.1-26.1v-22.6c0-1.9,1.6-3.5,3.5-3.5h22.6h22.6c1.9,0,3.5,1.6,3.5,3.5V164.2z"/>
</g>
</svg>
